<?xml version="1.0" encoding="UTF-8"?>
<svg width="120px" height="120px" viewBox="0 0 120 120" version="1.1" xmlns="http://www.w3.org/2000/svg" xmlns:xlink="http://www.w3.org/1999/xlink">
    <!-- Generator: Sketch 55.2 (78181) - https://sketchapp.com -->
    <title>编组 3</title>
    <desc>Created with Sketch.</desc>
    <defs>
        <polygon id="path-1" points="3.49720253e-14 0 120 0 120 120 3.49720253e-14 120"></polygon>
        <linearGradient x1="50%" y1="0%" x2="50%" y2="100%" id="linearGradient-3">
            <stop stop-color="#2F88FF" stop-opacity="0.3" offset="0%"></stop>
            <stop stop-color="#2F88FF" stop-opacity="0.05" offset="100%"></stop>
        </linearGradient>
        <linearGradient x1="50%" y1="0%" x2="50%" y2="89.4341484%" id="linearGradient-4">
            <stop stop-color="#2F88FF" stop-opacity="0.3" offset="0%"></stop>
            <stop stop-color="#2F88FF" stop-opacity="0.03" offset="100%"></stop>
        </linearGradient>
        <linearGradient x1="50%" y1="0%" x2="50%" y2="89.4341484%" id="linearGradient-5">
            <stop stop-color="#2F88FF" stop-opacity="0.3" offset="0%"></stop>
            <stop stop-color="#2F88FF" stop-opacity="0.03" offset="100%"></stop>
        </linearGradient>
        <linearGradient x1="50%" y1="0%" x2="50%" y2="100%" id="linearGradient-6">
            <stop stop-color="#FFC53D" offset="0%"></stop>
            <stop stop-color="#F78C1C" offset="100%"></stop>
        </linearGradient>
        <linearGradient x1="28.7334594%" y1="0%" x2="88.7277252%" y2="134.878305%" id="linearGradient-7">
            <stop stop-color="#2F88FF" offset="0%"></stop>
            <stop stop-color="#0E4AB3" offset="100%"></stop>
        </linearGradient>
        <linearGradient x1="4.25330813%" y1="0%" x2="133.30764%" y2="134.878305%" id="linearGradient-8">
            <stop stop-color="#2F88FF" offset="0%"></stop>
            <stop stop-color="#0E4AB3" offset="100%"></stop>
        </linearGradient>
        <linearGradient x1="10.6464093%" y1="48.9084564%" x2="82.0716271%" y2="50.816358%" id="linearGradient-9">
            <stop stop-color="#2F88FF" offset="0%"></stop>
            <stop stop-color="#1C68D9" offset="100%"></stop>
        </linearGradient>
    </defs>
    <g id="创建广告组" stroke="none" stroke-width="1" fill="none" fill-rule="evenodd">
        <g id="选择广告组-默认态备份-6" transform="translate(-383.000000, -236.000000)">
            <g id="编组-3" transform="translate(383.000000, 236.000000)">
                <mask id="mask-2" fill="white">
                    <use xlink:href="#path-1"></use>
                </mask>
                <use id="蒙版" fill-opacity="0.01" fill="#FFFFFF" xlink:href="#path-1"></use>
                <g mask="url(#mask-2)">
                    <g transform="translate(20.000000, 23.000000)">
                        <rect id="矩形" fill="url(#linearGradient-3)" transform="translate(42.405445, 41.967622) rotate(-330.000000) translate(-42.405445, -41.967622) " x="26.4054446" y="9.96762239" width="32" height="64" rx="16"></rect>
                        <g id="编组-4" stroke-width="1" fill="none">
                            <rect id="矩形备份" fill-opacity="0.5" fill="url(#linearGradient-4)" transform="translate(6.000000, 45.000000) rotate(-330.000000) translate(-6.000000, -45.000000) " x="4" y="37" width="4" height="16" rx="2"></rect>
                            <rect id="矩形备份-2" fill-opacity="0.5" fill="url(#linearGradient-4)" transform="translate(77.000000, 28.000000) rotate(-330.000000) translate(-77.000000, -28.000000) " x="75" y="20" width="4" height="16" rx="2"></rect>
                            <path d="M11.5,66.5 L11.5,64.5 C11.5,64.2238576 11.7238576,64 12,64 C12.2761424,64 12.5,64.2238576 12.5,64.5 L12.5,66.5 L14.5,66.5 C14.7761424,66.5 15,66.7238576 15,67 C15,67.2761424 14.7761424,67.5 14.5,67.5 L12.5,67.5 L12.5,69.5 C12.5,69.7761424 12.2761424,70 12,70 C11.7238576,70 11.5,69.7761424 11.5,69.5 L11.5,67.5 L9.5,67.5 C9.22385763,67.5 9,67.2761424 9,67 C9,66.7238576 9.22385763,66.5 9.5,66.5 L11.5,66.5 Z" id="形状结合" fill-opacity="0.7" fill="url(#linearGradient-5)"></path>
                            <path d="M50,0 L53,1.75 L53,5.25 L50,7 L47,5.25 L47,1.75 L50,0 Z M47.8660254,2.25518149 L47.8660254,4.74481851 L50,5.98963703 L52.1339746,4.74481851 L52.1339746,2.25518149 L50,1.01036297 L47.8660254,2.25518149 Z" id="多边形备份" fill="url(#linearGradient-6)" opacity="0.6" transform="translate(50.000000, 3.500000) rotate(-360.000000) translate(-50.000000, -3.500000) "></path>
                            <polygon id="多边形备份-2" fill="#2F88FF" opacity="0.441266741" transform="translate(53.750000, 69.000000) rotate(-360.000000) translate(-53.750000, -69.000000) " points="53.75 67 55.5 68 55.5 70 53.75 71 52 70 52 68"></polygon>
                        </g>
                        <g id="Group-Copy-7备份" stroke-width="1" fill="none" transform="translate(23.000000, 15.000000)">
                            <rect id="Rectangle-19" stroke="url(#linearGradient-7)" stroke-width="2.04647728" fill="#FFFFFF" x="1.02323864" y="1.02323864" width="27.9535227" height="43.9535227" rx="4.09295456"></rect>
                            <path d="M7.26604755,2.04984851 L8.65596612,4.04336796 C9.02997891,4.57980354 9.64262244,4.89950796 10.296571,4.89950796 L19.2969349,4.89950796 C19.9508834,4.89950796 20.5635269,4.57980354 20.9375397,4.04336796 L22.3274583,2.04984851 L7.26604755,2.04984851 Z" id="路径-5" fill="#2A80F5"></path>
                            <rect id="Rectangle-20" fill="#1C68D9" opacity="0.29703776" x="5.84615385" y="8.497669" width="4" height="4.18181818" rx="1.02323864"></rect>
                            <rect id="Rectangle-20-Copy" fill="url(#linearGradient-8)" fill-rule="nonzero" x="13" y="8.497669" width="4" height="4.18181818" rx="1.02323864"></rect>
                            <rect id="Rectangle-20-Copy-2" fill="#1C68D9" opacity="0.29703776" x="20.1538462" y="8.497669" width="4" height="4.18181818" rx="1.02323864"></rect>
                            <rect id="Rectangle-20" fill="url(#linearGradient-8)" fill-rule="nonzero" x="5.84615385" y="15.9498834" width="4" height="4.18181818" rx="1.02323864"></rect>
                            <rect id="Rectangle-20-Copy" fill="#1C68D9" opacity="0.29703776" x="13" y="15.9498834" width="4" height="4.18181818" rx="1.02323864"></rect>
                            <path d="M21.1770848,15.9498834 L23.1306075,15.9498834 C23.6957266,15.9498834 24.1538462,16.408003 24.1538462,16.9731221 L24.1538462,19.108463 C24.1538462,19.6735821 23.6957266,20.1317016 23.1306075,20.1317016 L21.1770848,20.1317016 C20.6119657,20.1317016 20.1538462,19.6735821 20.1538462,19.108463 L20.1538462,16.9731221 C20.1538462,16.408003 20.6119657,15.9498834 21.1770848,15.9498834 Z" id="Rectangle-20-Copy备份" fill="#1C68D9" opacity="0.29703776"></path>
                            <path d="M10.3846154,41.8717949 L19.6153846,41.8717949" id="路径-4" stroke="url(#linearGradient-9)" stroke-width="1.02323864" fill-opacity="0.3" fill="#1C68D9" stroke-linecap="round"></path>
                        </g>
                    </g>
                </g>
            </g>
        </g>
    </g>
</svg>